<?xml version="1.0" encoding="UTF-8"?>
<svg xmlns="http://www.w3.org/2000/svg" width="172" height="42" viewBox="0 0 172 42" fill="none">
  <path fill="#003838" d="M79.628 34.124V11.786h17.854v4.428H84.893v4.462h11.123v4.245H84.893v4.608h12.59v4.595H79.627ZM118.483 34.124c-1.152 0-1.313-.573-1.846-2.469-1.264-4.201-1.725-5.025-4.168-5.025-.85 0-1.532.006-2.272.012h-.103c-.752.007-1.572.015-2.688.017v7.466h-5.205V11.786h10.858c5.655 0 8.643 2.408 8.643 6.964 0 3.276-1.251 5.252-3.93 6.189 1.851.534 2.771 1.592 3.669 4.134l.185.531c.575 1.653 1.558 4.21 1.569 4.236l.109.284h-4.821Zm-6.134-11.53.362.005c2.503 0 3.881-1.154 3.881-3.247 0-2.448-1.03-3.244-4.242-3.273l-.175-.004h-4.8c0 .708-.004 1.414-.006 2.116-.006 1.444-.013 2.936.002 4.403h4.98-.002ZM160.208 34.524c-7.073 0-11.295-4.41-11.295-11.797 0-7.388 4.116-11.34 11.295-11.34 7.178 0 11.354 4.24 11.354 11.34s-4.245 11.797-11.354 11.797Zm.029-18.506c-3.969 0-6.069 2.37-6.069 6.851 0 4.482 2.155 6.994 6.069 6.994s6.009-2.483 6.009-6.994c0-4.51-2.078-6.85-6.009-6.85ZM59.387 34.124 51.86 11.786h6.16l3.417 11.776c.623 1.92 1.233 3.982 1.766 5.966h1.618c.48-1.672 1.114-3.846 1.802-5.968l3.457-11.775h5.927l-7.489 22.338h-9.129ZM136.274 34.524c-6.866 0-10.205-2.193-10.205-6.706v-1.534h5.198v.819c0 2.204 1.443 3.104 4.978 3.104 4.126 0 4.683-1.194 4.683-2.36 0-1.457-.925-2.418-5.655-3.023-6.348-.836-8.939-2.852-8.939-6.96 0-4.107 3.452-6.477 9.469-6.477 6.438 0 9.703 2.189 9.703 6.506v1.597h-4.903v-1.139c0-1.233-.559-2.647-4.919-2.647-3.748 0-4.181 1.217-4.181 2.132 0 1.072.425 2.174 5.509 2.851 6.327.872 8.907 2.914 8.907 7.046 0 4.38-3.426 6.791-9.645 6.791ZM34.16 22.573c-.768 2.25-1.388 4.665-4.101 7.774-2.525 2.892-5.307 4.26-8.143 5.655-2.726 1.341-5.362 2.145-6.229 2.4-.9.263-1.665.454-2.222.583v.75c3.678 2.21 10.117 3.377 13.756-.993 2.703-3.244 2.32-8.081 1.532-9.974-1.509-3.632-2.354-5.41-3.143-6.886-3.138-5.869-5.908-10.78-4.048-14.432C24.038 2.593 32.8.293 32.8.293c1.951 8.27 2.94 17.653 1.361 22.28ZM13.464 8.23v-.012a2.04 2.04 0 0 0-2.05-2.029h-8.91A2.062 2.062 0 0 0 .438 8.242v7.493c0 10.023 5.177 18.845 13.026 24V8.23Z"></path>
</svg>
